<?xml version="1.0" standalone="no"?>
<!DOCTYPE svg PUBLIC "-//W3C//DTD SVG 1.1//EN" "http://www.w3.org/Graphics/SVG/1.1/DTD/svg11.dtd" >
<svg xmlns="http://www.w3.org/2000/svg" xmlns:xlink="http://www.w3.org/1999/xlink" version="1.1">
<metadata></metadata>
<defs>
<font id="dialoguebold" horiz-adv-x="1105" >
<font-face units-per-em="2048" ascent="1536" descent="-512" />
<missing-glyph horiz-adv-x="778" />
<glyph horiz-adv-x="0" />
<glyph horiz-adv-x="682" />
<glyph unicode="&#xd;" horiz-adv-x="1474" />
<glyph unicode=" "  horiz-adv-x="778" />
<glyph unicode="&#x09;" horiz-adv-x="778" />
<glyph unicode="&#xa0;" horiz-adv-x="778" />
<glyph unicode="!" horiz-adv-x="778" d="M129 0l43 301h315l-43 -301h-315zM201 451l143 1024h299l-143 -1024h-299z" />
<glyph unicode="&#x22;" d="M211 825l76 650h299l-105 -650h-270zM653 825l76 650h299l-104 -650h-271z" />
<glyph unicode="#" d="M-88 322l39 278h178l78 281h-162l41 278h201l86 316h286l-88 -316h205l86 316h285l-86 -316h131l-41 -278h-170l-78 -281h154l-39 -278h-193l-90 -322h-284l90 322h-205l-90 -322h-285l90 322h-139zM414 600h204l78 281h-204z" />
<glyph unicode="$" d="M-23 188l166 232q81 -61 167.5 -97t160.5 -36q108 0 176 41t68 131q0 54 -29 80t-106 55l-177 63q-68 24 -114 51t-82 68t-53 99t-17 137q0 192 112 310.5t320 133.5l21 141h213l-21 -141q98 -12 184.5 -48.5t133.5 -86.5l-156 -215q-52 37 -137.5 59.5t-169.5 22.5 q-203 0 -203 -146q0 -41 26.5 -68.5t92.5 -53.5l170 -68q72 -29 118 -55.5t89 -68.5t63.5 -102.5t20.5 -142.5q0 -194 -106 -313.5t-328 -149.5l-19 -143h-213l19 135q-114 11 -221.5 59t-168.5 117z" />
<glyph unicode="%" horiz-adv-x="1474" d="M80 1057q0 85 21.5 160t62.5 135.5t108.5 95.5t153.5 35q119 0 179.5 -89.5t60.5 -228.5q0 -62 -13 -121t-40.5 -112t-66.5 -93t-95 -63.5t-121 -23.5q-126 0 -188 85.5t-62 219.5zM82 0l1010 1475h303l-1010 -1475h-303zM299 1061q0 -40 13.5 -57t43.5 -17q90 0 90 182 q0 40 -13 57t-42 17q-28 0 -47.5 -18t-28.5 -48.5t-12.5 -58t-3.5 -57.5zM811 297q0 85 21.5 160t62.5 135.5t108.5 95.5t153.5 35q81 0 136.5 -44.5t79.5 -114t24 -158.5q0 -78 -21.5 -150.5t-61.5 -132t-106 -95.5t-147 -36q-126 0 -188 85.5t-62 219.5zM1030 301 q0 -40 13.5 -57t43.5 -17q91 0 91 183q0 40 -13.5 56.5t-42.5 16.5q-28 0 -47.5 -18t-28.5 -48.5t-12.5 -58t-3.5 -57.5z" />
<glyph unicode="&#x26;" horiz-adv-x="1474" d="M106 348q0 187 96.5 312.5t289.5 211.5q-3 6 -16.5 37t-18 45t-13 44.5t-11.5 64.5t-3 76q0 162 108.5 253t319.5 91q99 0 171.5 -21t113 -59t59.5 -83.5t19 -100.5q0 -72 -21 -133t-51.5 -103.5t-83 -83t-98 -66.5t-113.5 -59q60 -140 139 -266q43 72 56 139h266 q-21 -204 -148 -366q46 -52 111 -113l-213 -213q-78 75 -127 131q-177 -94 -379 -94q-235 0 -344 85t-109 271zM401 381q0 -37 14 -61.5t41 -36.5t56 -16.5t68 -4.5q100 0 190 41q-102 154 -176 326q-77 -39 -135 -104t-58 -144zM711 1114q0 -53 37 -125q196 72 196 180 q0 36 -22 55t-58 19q-73 0 -113 -33.5t-40 -95.5z" />
<glyph unicode="'" horiz-adv-x="778" d="M268 825l76 650h299l-104 -650h-271z" />
<glyph unicode="(" d="M260 -43q0 105 10 180l119 834q14 99 36.5 182.5t62.5 166t93.5 144.5t133 110.5t178.5 72.5l100 -240q-73 -37 -124.5 -77.5t-84.5 -81t-55.5 -96.5t-34.5 -109.5t-24 -135.5l-107 -731q-14 -107 -14 -162q0 -105 44.5 -175t158.5 -140l-168 -231q-158 76 -241 199.5 t-83 289.5z" />
<glyph unicode=")" d="M113 -293q73 37 124.5 77.5t84.5 81t55.5 96.5t34.5 109.5t24 135.5l107 731q14 107 14 162q0 105 -44.5 175t-158.5 140l168 232q160 -68 242 -208t82 -329q0 -58 -10 -133l-119 -834q-14 -99 -36.5 -182t-62.5 -165.5t-93.5 -144.5t-133 -110.5t-178.5 -72.5z" />
<glyph unicode="*" d="M143 911l267 138l-230 137l123 172l221 -148l31 265h205l-43 -265l262 148l74 -172l-269 -137l232 -138l-123 -172l-221 146l-29 -250h-205l41 250l-262 -146z" />
<glyph unicode="+" d="M90 608l37 266h305l41 293h283l-41 -293h305l-37 -266h-305l-41 -280h-283l41 280h-305z" />
<glyph unicode="," horiz-adv-x="778" d="M102 0l52 360h360l-47 -335q-12 -86 -27 -130t-45 -75q-51 -51 -166 -84l-57 151q109 32 109 113h-179z" />
<glyph unicode="-" horiz-adv-x="778" d="M47 414l41 278h594l-41 -278h-594z" />
<glyph unicode="." horiz-adv-x="778" d="M106 0l52 360h360l-51 -360h-361z" />
<glyph unicode="/" d="M-37 0l903 1475h279l-903 -1475h-279z" />
<glyph unicode="0" d="M57 455q0 78 17 282q5 61 11 112t17.5 113.5t26.5 113.5t38.5 106t52 97.5t69 82t88.5 65.5t110.5 41t135.5 15q101 0 178.5 -25.5t125 -68.5t77.5 -106.5t41.5 -132t11.5 -151.5q0 -108 -21 -262q-11 -74 -20 -127.5t-23.5 -121t-30.5 -116.5t-40 -103.5t-52 -93 t-66.5 -75.5t-84 -59t-104 -35.5t-126.5 -13.5q-105 0 -183 24t-125 64t-75.5 101.5t-38.5 126t-10 147.5zM344 455q0 -86 31 -135.5t114 -49.5q38 0 70 16t55.5 42.5t44 67t34 82t25.5 96.5t19 100.5t15 103.5q18 144 18 221q0 205 -147 205q-43 0 -79 -16.5t-61 -43 t-45.5 -68t-33 -81.5t-22.5 -93t-15 -94.5t-9 -94.5q-14 -147 -14 -258z" />
<glyph unicode="1" d="M27 0l39 279h307l129 909h-283l39 287h569l-168 -1196h297l-38 -279h-891z" />
<glyph unicode="2" d="M-16 0l39 281l587 518q76 66 110.5 116.5t41.5 110.5q2 12 2 33q0 69 -48.5 107t-140.5 38q-84 0 -167 -21t-142 -59l-104 238q95 61 198 91t240 30q232 0 349.5 -110.5t117.5 -291.5q0 -110 -26.5 -191t-72 -139.5t-130.5 -132.5l-377 -331h518l-41 -287h-954z" />
<glyph unicode="3" d="M-12 170l178 217q64 -56 146 -86.5t165 -30.5q96 0 159.5 55t80.5 167q4 32 4 47q0 77 -42.5 119t-123.5 42q-138 0 -238 -53l-102 215l414 334h-434l38 279h857l-35 -271l-314 -258q137 -12 204 -98.5t67 -237.5q0 -63 -8 -118q-15 -115 -49 -202t-94.5 -156 t-156.5 -105.5t-225 -36.5q-97 0 -177.5 15t-139.5 43t-98 56t-76 64z" />
<glyph unicode="4" d="M-27 307l39 281l647 887h330l-125 -889h178l-38 -279h-179l-43 -307h-286l43 307h-566zM330 586h248l61 428z" />
<glyph unicode="5" d="M2 170l184 223q65 -58 146 -90.5t162 -32.5q96 0 157 55t78 167q4 32 4 47q0 153 -180 153q-55 0 -109.5 -18t-89.5 -47l-239 98l145 750h807l-39 -279h-541l-63 -309l139 84q238 0 344.5 -95.5t106.5 -287.5q0 -44 -6 -96q-26 -244 -153.5 -372t-383.5 -128 q-253 0 -469 178z" />
<glyph unicode="6" d="M53 432q0 70 8 135l15 135q41 395 176 588t401 193q139 0 237.5 -33.5t190.5 -93.5l-135 -246q-78 49 -142 71.5t-138 22.5q-108 0 -176 -75.5t-87 -217.5l-6 -47l129 99q30 6 97 6q182 0 291.5 -99t109.5 -278q0 -95 -14.5 -178.5t-51 -162.5t-92.5 -135t-144.5 -90 t-201.5 -34q-236 0 -351.5 100.5t-115.5 339.5zM342 444q0 -93 46 -133.5t144 -40.5q65 0 112.5 42.5t69 103t21.5 127.5q0 78 -48 112.5t-148 34.5q-89 0 -143 -72.5t-54 -173.5z" />
<glyph unicode="7" d="M164 1204l37 271h917l-35 -250l-581 -1225h-309l571 1204h-600z" />
<glyph unicode="8" d="M23 367q0 129 56.5 247t164.5 181q-86 69 -86 237q0 206 110 328.5t336 122.5q233 0 340 -84t107 -248q0 -229 -160 -344q56 -35 84.5 -112.5t28.5 -176.5q0 -116 -30.5 -210.5t-92 -166t-160.5 -110.5t-229 -39q-139 0 -242 37.5t-165 123.5t-62 214zM311 403 q0 -141 176 -141q117 0 173.5 62t56.5 176q0 76 -41.5 113.5t-132.5 37.5q-118 0 -175 -65.5t-57 -182.5zM440 1028q0 -115 140 -115q182 0 182 193q0 61 -34.5 87t-104.5 26q-183 0 -183 -191z" />
<glyph unicode="9" d="M25 119l135 243q140 -92 276 -92q126 0 192 78.5t89 261.5l-117 -98q-12 -2 -117 -2q-198 0 -298.5 91t-100.5 290q0 87 14.5 167.5t49.5 159t88 136.5t136.5 93.5t188.5 35.5q265 0 382.5 -91t117.5 -311q0 -66 -29 -280q-14 -105 -24 -170.5t-26 -148t-32 -131.5 t-40.5 -108t-54.5 -92t-70.5 -68t-91 -52t-114 -28t-141.5 -11q-219 0 -413 127zM373 920q0 -75 41 -109.5t131 -34.5q118 0 170.5 72t52.5 192q0 164 -162 164q-52 0 -92.5 -15t-66.5 -40.5t-43 -62t-24 -77.5t-7 -89z" />
<glyph unicode=":" horiz-adv-x="778" d="M106 0l52 360h360l-51 -360h-361zM211 743l51 361h361l-52 -361h-360z" />
<glyph unicode=";" horiz-adv-x="778" d="M104 0l52 360h360l-47 -335q-12 -86 -27 -130t-45 -75q-51 -51 -166 -84l-57 151q109 32 109 113h-179zM211 743l51 361h361l-52 -361h-360z" />
<glyph unicode="&#x3c;" d="M63 598l39 279l973 368l-41 -299l-553 -209l494 -209l-41 -299z" />
<glyph unicode="=" d="M70 371l41 278h864l-41 -278h-864zM135 825l39 279h864l-39 -279h-864z" />
<glyph unicode="&#x3e;" d="M33 229l41 299l553 209l-494 209l41 299l870 -368l-38 -279z" />
<glyph unicode="?" d="M113 1102q28 111 73 186t109 117.5t139 60t176 17.5q104 0 185 -21t134 -56.5t87 -87t48.5 -108.5t14.5 -125q0 -182 -118.5 -309t-315.5 -174l-20 -151h-291l45 344q57 11 96.5 21t93.5 26.5t90 38t70 50.5t51 69.5t17 89.5q0 66 -43 99.5t-142 33.5q-184 0 -227 -172z M262 0l43 301h307l-43 -301h-307z" />
<glyph unicode="@" horiz-adv-x="1474" d="M12 303q0 35 8 109l33 241q21 158 70 278t133 212t215 140t305 48h137q146 0 243.5 -20t164.5 -67.5t97 -125.5t30 -196q0 -92 -14 -193l-48 -330q-27 -194 -88.5 -273t-205.5 -79q-102 0 -159.5 36.5t-76.5 127.5l-117 -141h-90q-80 0 -138.5 23t-92 64.5t-49 94 t-15.5 117.5q0 21 4 71l23 203q20 172 113.5 266.5t285.5 94.5h43l101 -68l43 61h168l-82 -594q-6 -43 -6 -77q0 -90 63 -90q58 0 77.5 38.5t33.5 139.5l45 309q20 140 20 213q0 84 -30 132t-112 73.5t-231 25.5h-110q-142 0 -247 -34t-173.5 -103t-108 -163.5t-57.5 -223.5 l-33 -231q-6 -46 -6 -88q0 -87 26 -160.5t78.5 -132.5t140.5 -92t204 -33h524l-25 -164h-530q-117 0 -214 29.5t-165 81t-114.5 123t-68.5 153.5t-22 174zM584 371q0 -49 19.5 -72t68.5 -23q74 0 108 43t49 152l19 125q10 72 10 104q0 54 -24 71t-91 17q-72 0 -98 -40 t-39 -152l-12 -113q-10 -75 -10 -112z" />
<glyph unicode="A" d="M-92 0l616 1475h267l202 -1475h-286l-27 229h-393l-92 -229h-287zM389 481h258l-55 531z" />
<glyph unicode="B" d="M16 0l207 1475h406q436 0 436 -345q0 -109 -45.5 -200.5t-138.5 -141.5q137 -49 137 -262q0 -265 -132 -395.5t-403 -130.5h-467zM342 270h143q117 0 184.5 57.5t67.5 178.5q0 75 -49.5 106t-150.5 31h-144zM430 905h145q94 0 147.5 45t53.5 135q0 119 -145 119h-158z " />
<glyph unicode="C" d="M70 438q0 65 8 125l55 406q13 94 38.5 170.5t68.5 141.5t102 109t142 68.5t186 24.5q173 0 275 -32.5t190 -96.5l-172 -238q-140 88 -283 88q-126 0 -186.5 -78t-83.5 -241l-41 -293q-9 -56 -9 -103q0 -110 54 -162.5t188 -52.5q172 0 270 52l105 -238q-137 -92 -385 -92 q-270 0 -396 112.5t-126 329.5z" />
<glyph unicode="D" d="M0 0l207 1475h426q230 0 339 -109.5t109 -312.5q0 -69 -12 -146l-61 -411q-14 -96 -36.5 -169t-62 -136.5t-95.5 -104t-138 -63.5t-189 -23h-487zM324 260h163q107 0 163.5 67.5t78.5 221.5l53 377q9 56 9 100q0 98 -41 143t-129 45h-164z" />
<glyph unicode="E" d="M57 0l207 1475h840l-39 -279h-553l-41 -293h492l-37 -262h-492l-51 -362h553l-39 -279h-840z" />
<glyph unicode="F" d="M57 0l207 1475h869l-39 -279h-582l-47 -334h520l-37 -270h-520l-84 -592h-287z" />
<glyph unicode="G" d="M37 420q0 82 16 188l53 377q11 79 33 147.5t63 134.5t96 112.5t137.5 75t182.5 28.5q168 0 278.5 -41t199.5 -109l-164 -221q-123 92 -303 92q-107 0 -167.5 -80.5t-82.5 -238.5l-39 -275q-10 -66 -10 -135q0 -123 45.5 -168t136.5 -45q46 0 79.5 14t56 37.5t39 65.5 t26.5 86.5t20 112.5h-215l37 272h502l-53 -338q-17 -110 -40.5 -188.5t-62 -144t-92.5 -105t-130.5 -61t-178.5 -21.5q-133 0 -226 32t-143.5 92.5t-72 134t-21.5 169.5z" />
<glyph unicode="H" d="M0 0l207 1475h287l-78 -564h327l78 564h287l-207 -1475h-287l88 633h-327l-88 -633h-287z" />
<glyph unicode="I" horiz-adv-x="778" d="M139 0l207 1475h295l-207 -1475h-295z" />
<glyph unicode="J" d="M-55 139l145 236q52 -29 75 -41.5t65.5 -30.5t84 -24.5t91.5 -6.5q110 0 162 77.5t75 242.5l123 883h295l-129 -953q-37 -278 -158.5 -403t-363.5 -125q-297 0 -465 145z" />
<glyph unicode="K" d="M2 0l207 1475h287l-86 -617l448 617h330l-481 -654l278 -821h-321l-175 543l-145 -146l-55 -397h-287z" />
<glyph unicode="L" d="M43 0l207 1475h287l-168 -1196h614l-39 -279h-901z" />
<glyph unicode="M" horiz-adv-x="1474" d="M0 0l207 1475h323l195 -836l428 836h324l-207 -1475h-287l123 879l-307 -592h-246l-143 592l-123 -879h-287z" />
<glyph unicode="N" d="M0 0l207 1475h297l215 -725l102 725h287l-207 -1475h-276l-219 848l-119 -848h-287z" />
<glyph unicode="O" d="M29 401q0 69 12 148l53 377q20 142 53.5 240.5t91.5 172.5t147 109t214 35q131 0 224.5 -27.5t149 -81.5t80.5 -128.5t25 -174.5q0 -24 -4.5 -73.5t-5.5 -71.5l-53 -377q-22 -153 -54 -252t-90.5 -171t-148 -103t-221.5 -31q-241 0 -357 98.5t-116 310.5zM322 451 q0 -100 37 -144.5t128 -44.5q64 0 107.5 21.5t71 69.5t42.5 106t29 151l39 275q10 78 10 129q0 105 -36.5 147.5t-141.5 42.5q-49 0 -84.5 -14t-59.5 -38.5t-41.5 -66.5t-28 -87.5t-19.5 -112.5l-39 -275q-14 -107 -14 -159z" />
<glyph unicode="P" d="M20 0l207 1475h342q533 0 533 -410q0 -303 -136 -434t-419 -131h-170l-70 -500h-287zM416 778h166q120 0 176.5 62.5t56.5 191.5q0 88 -53 126t-180 38h-107z" />
<glyph unicode="Q" d="M29 401q0 69 12 148l53 377q20 142 53.5 240.5t91.5 172.5t147 109t214 35q131 0 224.5 -27.5t149 -81.5t80.5 -128.5t25 -174.5q0 -60 -10 -145l-53 -377q-23 -170 -59 -258.5t-101 -161.5l137 -195l-235 -170l-166 234q-38 -6 -80 -6q-249 0 -366 98t-117 311zM322 451 q0 -100 37 -144.5t128 -44.5q53 0 92.5 17.5t65 45.5t44 75.5t28.5 94.5t20 115l39 275q10 78 10 129q0 96 -40 143t-138 47q-49 0 -84.5 -14t-59.5 -38.5t-41.5 -66.5t-28 -87.5t-19.5 -112.5l-39 -275q-14 -107 -14 -159z" />
<glyph unicode="R" d="M-4 0l207 1475h364q253 0 378.5 -95t125.5 -311q0 -53 -10 -135q-20 -134 -89.5 -235t-183.5 -144l140 -555h-301l-125 500h-150l-69 -500h-287zM391 778h141q121 0 181 50t75 159q5 45 5 53q0 80 -48 118t-153 38h-141z" />
<glyph unicode="S" d="M-37 213l166 221q171 -164 340 -164q65 0 119 17.5t91.5 60.5t37.5 105q0 32 -10 55t-32.5 39t-41.5 25t-53 22l-177 63q-42 15 -72 29t-69.5 42.5t-64 63.5t-42.5 91.5t-18 126.5q0 100 35.5 187t99.5 150t158 99.5t205 36.5q159 0 282.5 -46.5t192.5 -117.5l-164 -215 q-60 42 -146.5 71t-185.5 29q-42 0 -80 -12t-69 -47t-31 -88q0 -51 25 -80.5t94 -56.5l170 -68q70 -28 116.5 -55t90 -68.5t65 -102t21.5 -141.5q0 -235 -137 -364t-410 -129q-153 0 -290 65t-216 156z" />
<glyph unicode="T" d="M106 1196l39 279h1024l-39 -279h-364l-168 -1196h-295l168 1196h-365z" />
<glyph unicode="U" d="M74 391q0 57 8 109l139 975h287l-135 -961q-6 -44 -6 -82q0 -180 165 -180q111 0 167 67.5t79 229.5l131 926h287l-137 -988q-19 -138 -54 -228.5t-99 -152t-160.5 -88t-239.5 -26.5q-214 0 -323 103.5t-109 295.5z" />
<glyph unicode="V" d="M125 1475h287l108 -1008l391 1008h275l-596 -1475h-283z" />
<glyph unicode="W" horiz-adv-x="1474" d="M131 1475h287l35 -879l227 592h246l65 -592l281 879h287l-515 -1475h-245l-64 713l-258 -713h-246z" />
<glyph unicode="X" d="M-78 0l471 756l-248 719h308l151 -439l275 439h307l-473 -756l250 -719h-308l-151 438l-275 -438h-307z" />
<glyph unicode="Y" d="M104 1475h304l165 -603l334 603h303l-542 -945l-74 -530h-287l74 530z" />
<glyph unicode="Z" d="M0 0l39 279l711 917h-562l39 279h881l-39 -279l-711 -917h582l-39 -279h-901z" />
<glyph unicode="[" horiz-adv-x="778" d="M37 -492l295 2089h491l-39 -278h-204l-218 -1532h205l-39 -279h-491z" />
<glyph unicode="\" d="M170 1475h279l489 -1475h-279z" />
<glyph unicode="]" horiz-adv-x="778" d="M-94 -492l39 279h205l217 1532h-205l39 278h491l-295 -2089h-491z" />
<glyph unicode="^" d="M199 1063l290 330h316l196 -330h-268l-115 139l-151 -139h-268z" />
<glyph unicode="_" horiz-adv-x="778" d="M-211 -340l39 279h901l-39 -279h-901z" />
<glyph unicode="`" d="M373 1618h338l135 -330h-268z" />
<glyph unicode="a" d="M51 365q0 39 6 79l41 293q24 168 131.5 272.5t266.5 104.5h159l125 -100l51 92h205l-155 -1106h-267l-4 115l-155 -123h-35q-181 0 -275 105.5t-94 267.5zM340 379q0 -78 30.5 -106.5t104.5 -28.5q94 0 134.5 44t58.5 173l22 157q15 107 15 136q0 60 -27 80t-100 20 q-106 0 -150 -44.5t-59 -172.5l-21 -158q-8 -78 -8 -100z" />
<glyph unicode="b" d="M20 0l207 1475h287l-57 -416l102 55h33q208 0 302.5 -99t94.5 -288q0 -53 -6 -111l-22 -198q-11 -97 -39 -171t-79 -133.5t-134.5 -90.5t-196.5 -31h-113l-116 137l-58 -129h-205zM362 401q0 -157 134 -157q91 0 132.5 55t59.5 188l19 131q8 52 8 99q0 75 -30.5 106 t-102.5 31q-105 0 -139 -43t-56 -193l-18 -131q-7 -51 -7 -86z" />
<glyph unicode="c" d="M104 356q0 37 7 95l39 276q9 60 28 113.5t55 105t85 88.5t122 59.5t162 22.5q91 0 163.5 -11t124 -32.5t83 -41t67.5 -48.5l-149 -225q-113 88 -268 88q-100 0 -148 -57t-61 -164l-15 -117q-6 -52 -6 -94q0 -84 36.5 -118t129.5 -34q165 0 289 66l78 -226 q-56 -49 -154 -79.5t-211 -30.5q-457 0 -457 364z" />
<glyph unicode="d" d="M57 365q0 23 9 102l38 281q10 70 40.5 133.5t80.5 116.5t126 84.5t167 31.5h156l69 -51l58 412h286l-206 -1475h-205l-25 115l-135 -123q-459 0 -459 373zM342 395q0 -151 129 -151q94 0 134.5 44t58.5 173l22 157q14 100 14 136q0 60 -27 80t-100 20q-105 0 -147 -44 t-57 -173l-21 -158q-6 -75 -6 -84z" />
<glyph unicode="e" d="M82 362q0 44 6 97l43 317q6 48 24 93t52.5 90.5t82 79t118.5 54.5t157 21q228 0 329 -95.5t101 -289.5q0 -73 -12 -158l-16 -120h-600q-5 -29 -5 -62q0 -80 44.5 -108.5t152.5 -28.5q76 0 140 12t151 53l82 -241q-75 -48 -186 -66t-209 -18q-455 0 -455 370zM395 651h320 q6 47 6 80q0 67 -30.5 95t-106.5 28q-38 0 -66 -5t-47.5 -17t-32 -25.5t-21 -39t-13 -48t-9.5 -60.5v-8z" />
<glyph unicode="f" d="M121 643l39 281h202l31 233q20 150 130.5 238t312.5 88q224 0 368 -103l-149 -235q-100 63 -219 63q-98 0 -130.5 -36.5t-46.5 -139.5l-16 -108h358l-38 -281h-359l-90 -643h-281l91 643h-203z" />
<glyph unicode="g" d="M57 356q0 56 9 115l32 231q27 196 133 304t295 108h129l119 -123l57 115h205l-149 -1059q-9 -65 -29 -123.5t-57.5 -114.5t-88 -96.5t-125 -65t-165.5 -24.5q-92 0 -157.5 17t-135.5 53l150 241q59 -34 141 -34q95 0 136 44t54 140l-114 -92q-233 0 -336 94t-103 270z M336 383q0 -65 28.5 -102t106.5 -37q94 0 135.5 44.5t59.5 172.5l22 157q14 100 14 136q0 60 -27 80t-100 20q-106 0 -150.5 -44.5t-59.5 -172.5l-21 -158q-8 -62 -8 -96z" />
<glyph unicode="h" d="M20 0l207 1475h267l-66 -465l129 104h59q209 0 297 -84t88 -252q0 -66 -12 -143l-88 -635h-280l88 629q10 68 10 104q0 66 -30.5 93.5t-106.5 27.5q-101 0 -135.5 -36.5t-53.5 -164.5l-92 -653h-281z" />
<glyph unicode="i" horiz-adv-x="778" d="M127 825l39 279h496l-156 -1104h-291l117 825h-205zM383 1296l43 301h305l-43 -301h-305z" />
<glyph unicode="j" horiz-adv-x="778" d="M-252 -279l146 230q29 -17 76.5 -32t88.5 -15q84 0 122 40.5t50 133.5l105 741h-234l41 287h525l-150 -1030q-11 -79 -30 -142t-55 -122t-86 -98.5t-125 -63t-171 -23.5q-71 0 -131 15.5t-89 30.5t-83 48zM389 1294l41 301h305l-41 -301h-305z" />
<glyph unicode="k" d="M61 0l207 1475h287l-100 -713l338 344h333l-358 -371l256 -735h-307l-176 510l-140 -127l-53 -383h-287z" />
<glyph unicode="l" horiz-adv-x="778" d="M129 1196l39 279h496l-207 -1475h-291l168 1196h-205z" />
<glyph unicode="m" horiz-adv-x="1474" d="M20 0l156 1106h205l25 -115l151 123q191 0 277 -129l153 129q174 0 278.5 -87.5t104.5 -244.5q0 -32 -4 -63l-96 -719h-287l96 686q8 62 8 80q0 46 -21 67t-75 21q-65 0 -86.5 -18.5t-27.5 -69.5l-109 -766h-246l96 686q9 70 9 80q0 46 -21.5 67t-75.5 21 q-65 0 -86.5 -18.5t-27.5 -69.5l-109 -766h-287z" />
<glyph unicode="n" d="M20 0l156 1106h205l25 -115l151 123h66q206 0 292 -84t86 -254q0 -70 -12 -149l-88 -627h-280l88 629q10 68 10 104q0 66 -30.5 93.5t-106.5 27.5q-101 0 -135.5 -36.5t-53.5 -164.5l-92 -653h-281z" />
<glyph unicode="o" d="M74 350q0 51 4 80l31 262q8 71 27 131.5t54 115t83.5 92.5t120 60.5t159.5 22.5q223 0 330.5 -100t107.5 -273q0 -55 -8 -102l-37 -236q-63 -411 -461 -411q-411 0 -411 358zM346 379q0 -78 30.5 -106.5t104.5 -28.5q94 0 134 45.5t61 183.5l20 139q11 102 11 107 q0 63 -30 98.5t-108 36.5q-96 0 -137.5 -44.5t-56.5 -172.5l-21 -158q-8 -78 -8 -100z" />
<glyph unicode="p" d="M-31 -369l207 1475h205l25 -115l151 123h47q205 0 302.5 -98.5t97.5 -267.5q0 -50 -9 -103l-37 -254q-14 -90 -44 -159t-82.5 -125t-137 -85.5t-196.5 -29.5h-117l-64 88l-61 -449h-287zM360 391q0 -67 29 -107t105 -40q93 0 133 45.5t61 183.5l21 139q10 93 10 107 q0 64 -30 99.5t-107 35.5q-96 0 -138 -44.5t-57 -172.5l-20 -158q-7 -47 -7 -88z" />
<glyph unicode="q" d="M60 312q-1 18 -1 38q0 54 7 115l38 276q23 167 133.5 270t303.5 103h114l119 -123l57 115h205l-207 -1475h-286l57 416l-104 -55h-25q-102 0 -179.5 23.5t-124.5 65.5t-75.5 101t-31.5 130zM338 379q0 -78 30.5 -106.5t104.5 -28.5q94 0 134.5 44t58.5 173l22 157 q14 100 14 136q0 60 -27 80t-100 20q-106 0 -149.5 -44t-58.5 -173l-21 -158q-8 -78 -8 -100z" />
<glyph unicode="r" d="M131 0l156 1106h205l22 -135l154 143q171 0 258 -27t174 -88l-150 -241q-61 35 -112 51t-121 16q-104 0 -142.5 -43t-58.5 -188l-84 -594h-301z" />
<glyph unicode="s" d="M53 129l133 223q82 -51 160 -79.5t172 -28.5q65 0 104.5 29t39.5 69q0 29 -21 44.5t-82 35.5l-156 49q-123 38 -184 103t-61 186q0 73 24 135t72.5 112t129 78.5t185.5 28.5q131 0 239.5 -36t182.5 -97l-137 -221q-154 94 -281 94q-131 0 -131 -76q0 -34 26 -54t85 -36 l168 -47q55 -16 91.5 -33t70 -46.5t49.5 -76.5t16 -112q0 -177 -121 -278t-315 -101q-144 0 -262 36.5t-197 98.5z" />
<glyph unicode="t" d="M92 825l43 281h223l35 246l283 20l-37 -270h358l-45 -281h-348l-51 -375q-2 -14 -2 -38q0 -136 154 -136q43 0 103 10t99 25l82 -256q-56 -29 -143.5 -42t-159.5 -13q-90 0 -165.5 20t-134.5 61t-92.5 109.5t-33.5 159.5q0 48 12 146l47 333h-227z" />
<glyph unicode="u" d="M76 352q0 51 10 133l88 621h281l-88 -598q-11 -82 -11 -115q0 -73 34.5 -103t125.5 -30q86 0 118 37t50 164l90 645h281l-152 -1106h-209l-24 115l-154 -123q-227 2 -333.5 85.5t-106.5 274.5z" />
<glyph unicode="v" d="M123 1106h305l76 -735l287 735h294l-471 -1106h-331z" />
<glyph unicode="w" horiz-adv-x="1474" d="M123 1106h289l30 -684l193 582h283l30 -582l223 684h287l-409 -1106h-281l-45 625l-219 -625h-283z" />
<glyph unicode="x" d="M-72 0l432 565l-260 541h328l143 -295l224 295h325l-424 -555l267 -551h-328l-148 305l-233 -305h-326z" />
<glyph unicode="y" d="M-123 -297l158 236q60 -35 125 -35q125 0 125 155q0 23 -9 97l-145 948h295l90 -764l307 764h289l-430 -981q-64 -146 -116 -235t-115.5 -151t-136 -86t-173.5 -24q-155 0 -264 76z" />
<glyph unicode="z" d="M18 0l35 250l574 594h-473l36 260h836l-35 -250l-569 -594h498l-37 -260h-865z" />
<glyph unicode="{" d="M182 428l37 250q200 28 213 143l37 285q56 432 489 541l101 -240q-53 -27 -82.5 -42.5t-64 -37t-51 -35.5t-36.5 -37t-29 -43t-20 -52t-17.5 -65.5t-13.5 -82.5q-35 -238 -73 -335t-105 -147q64 -84 64 -254q0 -80 -15 -182q-10 -75 -10 -117q0 -90 43.5 -141.5 t173.5 -128.5l-166 -229q-165 75 -249 189.5t-84 301.5q0 58 10 140l22 161q6 41 -6 70.5t-40.5 46.5t-57.5 26t-70 15z" />
<glyph unicode="|" horiz-adv-x="778" d="M74 -492l295 2089h286l-295 -2089h-286z" />
<glyph unicode="}" d="M-2 -272q152 68 193 96q62 43 88 115q17 50 32 155q24 175 72.5 305t112.5 176q-72 72 -72 259q0 83 14 178q13 93 13 141q0 91 -42 140.5t-169 125.5l166 228q176 -80 255.5 -189t79.5 -274q0 -53 -10 -131l-33 -232q-8 -59 35 -94.5t139 -48.5l-36 -250 q-105 -17 -154 -52.5t-57 -90.5l-39 -277q-30 -207 -141.5 -331.5t-346.5 -194.5z" />
<glyph unicode="~" d="M121 973q142 80 274 80q79 0 137 -20t110.5 -40t117.5 -20q100 0 184 47l86 -229q-125 -74 -246 -74q-78 0 -138 19.5t-115.5 39t-122.5 19.5q-120 0 -199 -54z" />
<glyph unicode="&#xa1;" horiz-adv-x="778" d="M86 -371l143 1024h299l-143 -1024h-299zM242 803l43 301h315l-43 -301h-315z" />
<glyph unicode="&#xa2;" d="M127.5 513q-1.5 59 5.5 120l39 246q11 67 27.5 122t47.5 109t73.5 91.5t106.5 62.5t144 28l27 191h254l-27 -189q139 -21 258 -131l-153 -219q-49 38 -119 63t-139 25q-98 0 -155 -47t-71 -160l-24 -170q-16 -113 27 -159.5t141 -46.5q172 0 282 69l97 -239 q-42 -39 -126.5 -65t-172.5 -26l-29 -196h-254l29 196q-70 10 -125 40.5t-88 73.5t-53.5 97.5t-22 113.5z" />
<glyph unicode="&#xa3;" horiz-adv-x="1474" d="M176 276q78 -2 123.5 34.5t58.5 129.5l21 140h-150l35 258h150l14 116q32 257 163 393t337 136q105 0 182.5 -18t124 -44t100.5 -71l-168 -230q-53 44 -104.5 64t-126.5 20q-83 0 -141.5 -79.5t-85.5 -239.5l-9 -47h224l-35 -258h-223q-4 -33 -7.5 -59t-6 -40t-4 -24 t-2 -14t-1 -7t-0.5 -6q-13 -96 19 -126t139 -30q232 0 356 66l105 -238q-164 -110 -461 -110q-245 0 -365 90q-36 -46 -109.5 -68t-140.5 -22z" />
<glyph unicode="&#xa5;" d="M57 272l35 258h289l-277 945h304l165 -603l334 603h303l-542 -945h288l-34 -258h-289l-39 -272h-287l39 272h-289z" />
<glyph unicode="&#xa6;" horiz-adv-x="778" d="M74 -492l127 902h286l-127 -902h-286zM242 696l127 901h286l-127 -901h-286z" />
<glyph unicode="&#xa7;" d="M-12 129l131 225q178 -110 280 -110q97 0 143.5 27t51.5 67q5 28 -17.5 47.5t-84.5 36.5l-156 41q-141 34 -193 96q-68 81 -49 215q12 87 58 156.5t116 113.5q-34 76 -20 187q45 303 377 303q291 0 444 -127l-137 -225q-150 92 -273 92q-71 0 -100.5 -19.5t-34.5 -60.5 q-5 -28 19 -48.5t80 -35.5l174 -49q56 -16 97 -37.5t76 -57.5t48.5 -92.5t3.5 -130.5q-25 -190 -182 -241q51 -87 39 -172q-48 -338 -451 -338q-122 0 -244 37.5t-196 99.5zM375 774q-5 -30 21.5 -51.5t88.5 -34.5q102 -26 175.5 -9t82.5 79q4 27 -21.5 47t-66 30 t-77.5 14.5t-66 4.5q-71 0 -101 -19.5t-36 -60.5z" />
<glyph unicode="&#xa8;" d="M291 1331l39 266h266l-39 -266h-266zM717 1331l39 266h266l-39 -266h-266z" />
<glyph unicode="&#xa9;" horiz-adv-x="1474" d="M23 739q0 154 54 292t147.5 239.5t227 161t285.5 59.5q203 0 367.5 -101.5t256 -273.5t91.5 -377t-91.5 -376.5t-256 -272t-367.5 -100.5q-152 0 -285.5 59t-227 160t-147.5 239t-54 291zM135 739q0 -130 45.5 -247.5t124.5 -203t191.5 -136t240.5 -50.5t240.5 50.5 t191.5 136t124.5 203t45.5 247.5t-45.5 248t-124.5 204t-191.5 136.5t-240.5 50.5t-240.5 -50.5t-191.5 -136.5t-124.5 -204t-45.5 -248zM383 639v211q0 72 20 131.5t62.5 107t116.5 74.5t174 27q108 0 194 -27t127 -67l-96 -189q-92 66 -217 66q-78 0 -117 -37t-39 -127 v-129q0 -90 39 -127t117 -37q125 0 217 66l92 -179q-42 -44 -123 -74t-194 -30q-102 0 -176.5 26.5t-116 75t-61 107.5t-19.5 131z" />
<glyph unicode="&#xaa;" d="M190 782.5q-14 71.5 0 155.5l35 252q15 116 106.5 203.5t241.5 87.5h125l101 -90l43 84h188l-129 -922h-239l4 137l-136 -143q-104 0 -177.5 29.5t-111 82t-51.5 124zM440 967q-15 -111 8 -155t99 -44q77 0 112 43.5t50 155.5l12 86q19 125 0.5 160.5t-107.5 35.5 q-76 0 -111 -43t-50 -153z" />
<glyph unicode="&#xab;" d="M45 553l381 551h266l-381 -551l226 -553h-267zM477 553l381 551h266l-381 -551l226 -553h-267z" />
<glyph unicode="&#xad;" horiz-adv-x="778" d="M47 414l41 278h594l-41 -278h-594z" />
<glyph unicode="&#xae;" horiz-adv-x="1474" d="M23 739q0 154 54 292t147.5 239.5t227 161t285.5 59.5q203 0 367.5 -101.5t256 -273.5t91.5 -377t-91.5 -376.5t-256 -272t-367.5 -100.5q-152 0 -285.5 59t-227 160t-147.5 239t-54 291zM135 739q0 -130 45.5 -247.5t124.5 -203t191.5 -136t240.5 -50.5t240.5 50.5 t191.5 136t124.5 203t45.5 247.5t-45.5 248t-124.5 204t-191.5 136.5t-240.5 50.5t-240.5 -50.5t-191.5 -136.5t-124.5 -204t-45.5 -248zM440 289v913h320q69 0 126.5 -17t102.5 -52.5t70.5 -94.5t25.5 -137q0 -195 -135 -266l133 -346h-211l-120 309h-107v-309h-205z M645 797h127q62 0 88.5 21t26.5 83t-26.5 82.5t-88.5 20.5h-127v-207z" />
<glyph unicode="&#xaf;" d="M217 1368l35 248h852l-35 -248h-852z" />
<glyph unicode="&#xb0;" d="M172 851.5q-11 88.5 8 207.5q32 227 132.5 326.5t291.5 99.5q96 0 167 -15.5t124.5 -50.5t81.5 -91.5t38 -138.5t-7 -192q-35 -260 -134 -360t-315 -100q-85 0 -150 16t-117.5 53t-80.5 97t-39 148.5zM420 1012q-18 -134 14.5 -189t124.5 -55t139.5 54.5t65.5 189.5 q11 60 8.5 102.5t-9.5 70t-27 43t-45.5 21.5t-63.5 6q-64 0 -102 -18.5t-64.5 -72t-40.5 -152.5z" />
<glyph unicode="&#xb1;" d="M29 125l39 278h880l-39 -278h-880zM115 791l39 266h305l41 293h282l-41 -293h306l-39 -266h-306l-38 -281h-283l39 281h-305z" />
<glyph unicode="&#xb2;" d="M178 553l35 244l385 227q74 43 105.5 73t31.5 68t-39.5 56t-91.5 18q-80 0 -134.5 -11.5t-121.5 -39.5l-90 209q98 46 176 66t178 20q174 0 278.5 -83t104.5 -220q0 -100 -39.5 -165t-124.5 -116l-153 -96h287l-35 -250h-752z" />
<glyph unicode="&#xb3;" d="M162 668l147 182q2 -1 26.5 -17t32 -20t32 -16t42 -16t45 -8.5t56.5 -4.5q91 0 124.5 22t41.5 78q2 12 2 31q0 32 -23.5 47t-95.5 15q-98 0 -160 -23l-72 176l267 133h-316l31 226h653l-30 -216l-181 -100q31 -8 49 -14t41.5 -17t37 -25.5t26 -36t18 -51.5t5.5 -69 q0 -217 -97.5 -310t-326.5 -93q-93 0 -169.5 21t-115.5 44t-90 62z" />
<glyph unicode="&#xb4;" d="M416 1288l229 330h338l-299 -330h-268z" />
<glyph unicode="&#xb5;" d="M-39 -410l213 1514h277l-89 -619q-18 -131 8.5 -178t125.5 -47q70 0 104 15t52.5 56t31.5 130l90 643h281l-156 -1104h-205l-24 115l-154 -123q-125 0 -209 59l-65 -461h-281z" />
<glyph unicode="&#xb6;" d="M92 1108q27 191 128 279t315 88h245l-207 -1475h-231l94 670q-195 0 -284.5 110t-59.5 328zM684 0l207 1475h231l-207 -1475h-231z" />
<glyph unicode="&#xb7;" horiz-adv-x="778" d="M160 373l49 360h360l-49 -360h-360z" />
<glyph unicode="&#xb8;" d="M133 -389l94 135q118 -70 207 -70h8.5h10.5t11 0.5t12.5 1t12 2t12 3.5t10 5t8.5 6.5t5.5 9t3.5 11.5q5 30 -16 41t-55 11q-65 0 -95 -15l-63 117l43 149h205l-39 -137q33 17 78 17q68 0 111.5 -54.5t31.5 -136.5q-5 -39 -13.5 -65.5t-28 -53.5t-50 -43.5t-81 -26.5 t-120.5 -10q-96 0 -178.5 33.5t-124.5 69.5z" />
<glyph unicode="&#xb9;" d="M231 551l35 244h230l59 426h-209l35 252h459l-95 -678h220l-35 -244h-699z" />
<glyph unicode="&#xba;" d="M203 946l35 217q8 48 23 90t44 86t68.5 75t101.5 51t139 20q224 0 307.5 -109.5t53.5 -322.5l-23 -160q-11 -76 -35 -134.5t-68 -109t-117.5 -77.5t-172.5 -27q-209 0 -297 110.5t-59 290.5zM457 971q-15 -110 7 -156.5t95 -46.5q74 0 109.5 46.5t50.5 156.5l10 84 q15 109 -6.5 154.5t-95.5 45.5t-109.5 -45.5t-50.5 -154.5z" />
<glyph unicode="&#xbb;" d="M-68 0l381 553l-225 551h266l226 -551l-381 -553h-267zM365 0l380 553l-225 551h266l226 -551l-381 -553h-266z" />
<glyph unicode="&#xbc;" horiz-adv-x="2211" d="M-14 551l34 244h230l59 426h-209l35 252h459l-94 -678h219l-35 -244h-698zM496 0l903 1475h278l-903 -1475h-278zM1260 141l32 240l506 547h283l-78 -549h131l-33 -238h-131l-20 -141h-246l20 141h-464zM1585 379h172l29 205z" />
<glyph unicode="&#xbd;" horiz-adv-x="2211" d="M-14 551l34 244h230l59 426h-209l35 252h459l-94 -678h219l-35 -244h-698zM475 0l903 1475h279l-903 -1475h-279zM1348 2l34 244l385 227q74 43 106 73t32 68t-39.5 56t-91.5 18q-80 0 -134.5 -11.5t-121.5 -39.5l-91 209q98 46 176.5 66t178.5 20q174 0 278.5 -83 t104.5 -220q0 -100 -39.5 -165t-124.5 -116l-154 -96h287l-35 -250h-751z" />
<glyph unicode="&#xbe;" horiz-adv-x="2211" d="M-2 668l147 182q2 -1 26.5 -17t32 -20t32 -16t42 -16t45 -8.5t56.5 -4.5q91 0 124.5 22t41.5 78q2 12 2 31q0 32 -23.5 47t-95.5 15q-98 0 -160 -23l-71 176l266 133h-316l31 226h653l-30 -216l-180 -100q46 -12 71.5 -22.5t53 -33t39.5 -61t12 -96.5q0 -217 -97.5 -310 t-326.5 -93q-93 0 -169.5 21t-115.5 44t-90 62zM539 0l903 1475h278l-903 -1475h-278zM1260 141l32 240l506 547h283l-78 -549h131l-33 -238h-131l-20 -141h-246l20 141h-464zM1585 379h172l29 205z" />
<glyph unicode="&#xbf;" d="M-23 18q0 182 119 309.5t316 174.5l20 151h291l-45 -344q-57 -11 -96.5 -21t-93.5 -26.5t-90 -38t-70 -50.5t-51 -69.5t-17 -89.5q0 -66 42.5 -99.5t141.5 -33.5q185 0 228 172l272 -51q-28 -111 -73 -186t-109.5 -117.5t-139.5 -60t-176 -17.5q-129 0 -222.5 31t-146 87 t-76.5 125t-24 154zM444 803l43 301h308l-43 -301h-308z" />
<glyph unicode="&#xc0;" d="M-92 0l616 1475h267l202 -1475h-286l-27 229h-393l-92 -229h-287zM389 481h258l-55 531zM403 1958h338l136 -330h-269z" />
<glyph unicode="&#xc1;" d="M-92 0l616 1475h267l202 -1475h-286l-27 229h-393l-92 -229h-287zM389 481h258l-55 531zM469 1628l229 330h338l-299 -330h-268z" />
<glyph unicode="&#xc2;" d="M-92 0l616 1475h267l202 -1475h-286l-27 229h-393l-92 -229h-287zM207 1677l371 375h331l265 -375h-302l-161 176l-209 -176h-295zM389 481h258l-55 531z" />
<glyph unicode="&#xc3;" d="M-92 0l616 1475h267l202 -1475h-286l-27 229h-393l-92 -229h-287zM242 1903q140 79 274 79q63 0 113.5 -12.5t78.5 -27t71 -27t93 -12.5q109 0 193 47l84 -224q-133 -79 -250 -79q-60 0 -111 12t-81.5 26.5t-77.5 26.5t-101 12q-116 0 -184 -47zM389 481h258l-55 531z " />
<glyph unicode="&#xc4;" d="M-92 0l616 1475h267l202 -1475h-286l-27 229h-393l-92 -229h-287zM344 1671l39 266h266l-39 -266h-266zM389 481h258l-55 531zM770 1671l39 266h266l-39 -266h-266z" />
<glyph unicode="&#xc5;" d="M-92 0l616 1475h267l202 -1475h-286l-27 229h-393l-92 -229h-287zM389 481h258l-55 531zM459 1903q8 94 76.5 164.5t181.5 70.5q151 0 214.5 -72t45.5 -198q-6 -54 -23.5 -99.5t-47.5 -85t-80 -62t-115 -22.5q-83 0 -137 20.5t-80.5 62.5t-33.5 94.5t-1 126.5zM610 1870 q-11 -80 10.5 -104.5t77.5 -24.5q53 0 81.5 25t39.5 104q10 78 -12 102.5t-74 24.5q-56 0 -84.5 -24.5t-38.5 -102.5z" />
<glyph unicode="&#xc6;" horiz-adv-x="1474" d="M-68 0l678 1475h903l-38 -279h-410l-41 -293h348l-37 -262h-348l-51 -362h410l-39 -279h-697l33 229h-291l-92 -229h-328zM455 481h223l96 684z" />
<glyph unicode="&#xc7;" d="M70 438q0 65 8 125l55 406q13 94 38.5 170.5t68.5 141.5t102 109t142 68.5t186 24.5q173 0 275 -32.5t190 -96.5l-172 -238q-140 88 -283 88q-126 0 -186.5 -78t-83.5 -241l-41 -293q-9 -56 -9 -103q0 -110 54 -162.5t188 -52.5q172 0 270 52l105 -238q-137 -92 -385 -92 q-270 0 -396 112.5t-126 329.5zM184 -410l95 136q118 -70 206 -70h8.5h11t11.5 0.5t12.5 1t12 2t12 3.5t10 5t8.5 6.5t5.5 9t3.5 11.5q5 30 -16.5 40.5t-55.5 10.5q-66 0 -94 -14l-64 116l43 150h205l-39 -137q31 16 78 16q68 0 111.5 -54t31.5 -136q-5 -39 -13.5 -65.5 t-28 -53.5t-50 -43.5t-81 -26.5t-120.5 -10q-96 0 -178.5 33t-124.5 69z" />
<glyph unicode="&#xc8;" d="M57 0l207 1475h840l-39 -279h-553l-41 -293h492l-37 -262h-492l-51 -362h553l-39 -279h-840zM453 1958h338l135 -330h-269z" />
<glyph unicode="&#xc9;" d="M57 0l207 1475h840l-39 -279h-553l-41 -293h492l-37 -262h-492l-51 -362h553l-39 -279h-840zM518 1628l230 330h337l-299 -330h-268z" />
<glyph unicode="&#xca;" d="M57 0l207 1475h840l-39 -279h-553l-41 -293h492l-37 -262h-492l-51 -362h553l-39 -279h-840zM256 1677l371 375h331l265 -375h-301l-162 176l-209 -176h-295z" />
<glyph unicode="&#xcb;" d="M57 0l207 1475h840l-39 -279h-553l-41 -293h492l-37 -262h-492l-51 -362h553l-39 -279h-840zM393 1671l39 266h266l-39 -266h-266zM819 1671l39 266h266l-39 -266h-266z" />
<glyph unicode="&#xcc;" horiz-adv-x="778" d="M139 0l207 1475h295l-207 -1475h-295zM244 1958h338l135 -330h-268z" />
<glyph unicode="&#xcd;" horiz-adv-x="778" d="M139 0l207 1475h295l-207 -1475h-295zM309 1628l230 330h338l-299 -330h-269z" />
<glyph unicode="&#xce;" horiz-adv-x="778" d="M47 1677l371 375h332l264 -375h-301l-162 176l-209 -176h-295zM139 0l207 1475h295l-207 -1475h-295z" />
<glyph unicode="&#xcf;" horiz-adv-x="778" d="M139 0l207 1475h295l-207 -1475h-295zM184 1671l39 266h266l-38 -266h-267zM610 1671l39 266h266l-38 -266h-267z" />
<glyph unicode="&#xd0;" d="M-51 592l35 258h594l-35 -258h-594zM-2 0l207 1475h393q134 0 226 -25.5t147 -79t78.5 -129t23.5 -184.5q0 -82 -16 -197l-51 -366q-16 -117 -50 -203.5t-94.5 -154t-157 -102t-229.5 -34.5h-477zM322 260h163q107 0 163.5 67.5t78.5 221.5l53 377q8 49 8 100 q0 98 -41 143t-129 45h-163z" />
<glyph unicode="&#xd1;" d="M0 0l207 1475h297l215 -725l102 725h287l-207 -1475h-276l-219 848l-119 -848h-287zM258 1923q142 80 274 80q63 0 114 -12.5t79 -27.5t71 -27.5t93 -12.5q108 0 192 47l84 -223q-135 -80 -250 -80q-76 0 -134.5 19.5t-113.5 39t-122 19.5q-117 0 -185 -47z" />
<glyph unicode="&#xd2;" d="M29 401q0 69 12 148l53 377q20 142 53.5 240.5t91.5 172.5t147 109t214 35q131 0 224.5 -27.5t149 -81.5t80.5 -128.5t25 -174.5q0 -24 -4.5 -73.5t-5.5 -71.5l-53 -377q-22 -153 -54 -252t-90.5 -171t-148 -103t-221.5 -31q-241 0 -357 98.5t-116 310.5zM322 451 q0 -100 37 -144.5t128 -44.5q64 0 107.5 21.5t71 69.5t42.5 106t29 151l39 275q10 78 10 129q0 105 -36.5 147.5t-141.5 42.5q-49 0 -84.5 -14t-59.5 -38.5t-41.5 -66.5t-28 -87.5t-19.5 -112.5l-39 -275q-14 -107 -14 -159zM406 1958h337l136 -330h-269z" />
<glyph unicode="&#xd3;" d="M29 401q0 69 12 148l53 377q20 142 53.5 240.5t91.5 172.5t147 109t214 35q131 0 224.5 -27.5t149 -81.5t80.5 -128.5t25 -174.5q0 -24 -4.5 -73.5t-5.5 -71.5l-53 -377q-22 -153 -54 -252t-90.5 -171t-148 -103t-221.5 -31q-241 0 -357 98.5t-116 310.5zM322 451 q0 -100 37 -144.5t128 -44.5q64 0 107.5 21.5t71 69.5t42.5 106t29 151l39 275q10 78 10 129q0 105 -36.5 147.5t-141.5 42.5q-49 0 -84.5 -14t-59.5 -38.5t-41.5 -66.5t-28 -87.5t-19.5 -112.5l-39 -275q-14 -107 -14 -159zM471 1628l229 330h338l-299 -330h-268z" />
<glyph unicode="&#xd4;" d="M29 401q0 69 12 148l53 377q20 142 53.5 240.5t91.5 172.5t147 109t214 35q131 0 224.5 -27.5t149 -81.5t80.5 -128.5t25 -174.5q0 -24 -4.5 -73.5t-5.5 -71.5l-53 -377q-22 -153 -54 -252t-90.5 -171t-148 -103t-221.5 -31q-241 0 -357 98.5t-116 310.5zM209 1677 l371 375h331l265 -375h-302l-161 176l-209 -176h-295zM322 451q0 -100 37 -144.5t128 -44.5q64 0 107.5 21.5t71 69.5t42.5 106t29 151l39 275q10 78 10 129q0 105 -36.5 147.5t-141.5 42.5q-49 0 -84.5 -14t-59.5 -38.5t-41.5 -66.5t-28 -87.5t-19.5 -112.5l-39 -275 q-14 -107 -14 -159z" />
<glyph unicode="&#xd5;" d="M29 401q0 69 12 148l53 377q20 142 53.5 240.5t91.5 172.5t147 109t214 35q131 0 224.5 -27.5t149 -81.5t80.5 -128.5t25 -174.5q0 -24 -4.5 -73.5t-5.5 -71.5l-53 -377q-22 -153 -54 -252t-90.5 -171t-148 -103t-221.5 -31q-241 0 -357 98.5t-116 310.5zM244 1903 q140 79 274 79q63 0 113.5 -12.5t78.5 -27t71 -27t93 -12.5q109 0 193 47l84 -224q-133 -79 -250 -79q-60 0 -111 12t-81.5 26.5t-77.5 26.5t-101 12q-116 0 -184 -47zM322 451q0 -100 37 -144.5t128 -44.5q64 0 107.5 21.5t71 69.5t42.5 106t29 151l39 275q10 78 10 129 q0 105 -36.5 147.5t-141.5 42.5q-49 0 -84.5 -14t-59.5 -38.5t-41.5 -66.5t-28 -87.5t-19.5 -112.5l-39 -275q-14 -107 -14 -159z" />
<glyph unicode="&#xd6;" d="M29 401q0 69 12 148l53 377q20 142 53.5 240.5t91.5 172.5t147 109t214 35q131 0 224.5 -27.5t149 -81.5t80.5 -128.5t25 -174.5q0 -24 -4.5 -73.5t-5.5 -71.5l-53 -377q-22 -153 -54 -252t-90.5 -171t-148 -103t-221.5 -31q-241 0 -357 98.5t-116 310.5zM322 451 q0 -100 37 -144.5t128 -44.5q64 0 107.5 21.5t71 69.5t42.5 106t29 151l39 275q10 78 10 129q0 105 -36.5 147.5t-141.5 42.5q-49 0 -84.5 -14t-59.5 -38.5t-41.5 -66.5t-28 -87.5t-19.5 -112.5l-39 -275q-14 -107 -14 -159zM346 1671l39 266h266l-39 -266h-266zM772 1671 l39 266h266l-39 -266h-266z" />
<glyph unicode="&#xd7;" d="M82 492l285 249l-222 260l209 185l224 -260l294 260l164 -191l-297 -260l226 -258l-211 -184l-224 258l-284 -250z" />
<glyph unicode="&#xd8;" d="M-55 -63l137 225q-78 139 -41 387l61 438q16 111 50.5 199t92 156t144 104.5t197.5 36.5q74 0 132.5 -7.5t81.5 -14.5t64 -21l64 98h237l-141 -227q42 -75 52.5 -169t-7.5 -216l-53 -377q-41 -297 -158.5 -427t-345.5 -130q-28 0 -50 0.5t-41.5 1.5t-32.5 2t-28.5 4 t-23 4t-23 6t-21 7t-24 8.5t-26.5 9.5l-60 -98h-237zM315 545l402 651q-37 18 -96 18q-64 0 -109 -21.5t-73.5 -67t-45 -101.5t-28.5 -139zM389 272q36 -20 96 -20q123 0 179.5 87t83.5 271l45 320z" />
<glyph unicode="&#xd9;" d="M74 391q0 57 8 109l139 975h287l-135 -961q-6 -44 -6 -82q0 -180 165 -180q111 0 167 67.5t79 229.5l131 926h287l-137 -988q-19 -138 -54 -228.5t-99 -152t-160.5 -88t-239.5 -26.5q-214 0 -323 103.5t-109 295.5zM457 1958h338l135 -330h-268z" />
<glyph unicode="&#xda;" d="M74 391q0 57 8 109l139 975h287l-135 -961q-6 -44 -6 -82q0 -180 165 -180q111 0 167 67.5t79 229.5l131 926h287l-137 -988q-19 -138 -54 -228.5t-99 -152t-160.5 -88t-239.5 -26.5q-214 0 -323 103.5t-109 295.5zM522 1628l230 330h338l-299 -330h-269z" />
<glyph unicode="&#xdb;" d="M74 391q0 57 8 109l139 975h287l-135 -961q-6 -44 -6 -82q0 -180 165 -180q111 0 167 67.5t79 229.5l131 926h287l-137 -988q-19 -138 -54 -228.5t-99 -152t-160.5 -88t-239.5 -26.5q-214 0 -323 103.5t-109 295.5zM260 1677l371 375h332l264 -375h-301l-162 176 l-209 -176h-295z" />
<glyph unicode="&#xdc;" d="M74 391q0 57 8 109l139 975h287l-135 -961q-6 -44 -6 -82q0 -180 165 -180q111 0 167 67.5t79 229.5l131 926h287l-137 -988q-19 -138 -54 -228.5t-99 -152t-160.5 -88t-239.5 -26.5q-214 0 -323 103.5t-109 295.5zM397 1671l39 266h266l-38 -266h-267zM823 1671l39 266 h266l-38 -266h-267z" />
<glyph unicode="&#xdd;" d="M104 1475h304l165 -603l334 603h303l-542 -945l-74 -530h-287l74 530zM469 1628l229 330h338l-299 -330h-268z" />
<glyph unicode="&#xde;" d="M16 0l207 1475h287l-31 -226h109q234 0 353.5 -95t119.5 -310q0 -51 -10 -133q-16 -117 -62 -202.5t-116 -136t-155 -74.5t-188 -24h-188l-39 -274h-287zM381 553h158q109 0 165 49t70 150q4 23 4 61q0 82 -46 120t-150 38h-142z" />
<glyph unicode="&#xdf;" d="M18 0l148 1036q33 226 143 334t324 105q233 -3 343.5 -107t82.5 -301q-14 -101 -64.5 -179t-140.5 -100q101 -24 139.5 -116.5t18.5 -227.5q-17 -128 -59 -216.5t-108.5 -137.5t-147 -69.5t-187.5 -20.5h-84l39 270h20q111 0 173 46.5t77 150.5q13 97 -36 136.5 t-162 39.5h-21l37 262h37q87 0 131.5 41.5t52.5 108.5q10 72 -20.5 110.5t-118.5 38.5q-163 0 -193 -211l-141 -993h-283z" />
<glyph unicode="&#xe0;" d="M51 365q0 39 6 79l41 293q24 168 131.5 272.5t266.5 104.5h159l125 -100l51 92h205l-155 -1106h-267l-4 115l-155 -123h-35q-181 0 -275 105.5t-94 267.5zM340 379q0 -78 30.5 -106.5t104.5 -28.5q94 0 134.5 44t58.5 173l22 157q15 107 15 136q0 60 -27 80t-100 20 q-106 0 -150 -44.5t-59 -172.5l-21 -158q-8 -78 -8 -100zM342 1569h338l135 -330h-268z" />
<glyph unicode="&#xe1;" d="M51 365q0 39 6 79l41 293q24 168 131.5 272.5t266.5 104.5h159l125 -100l51 92h205l-155 -1106h-267l-4 115l-155 -123h-35q-181 0 -275 105.5t-94 267.5zM340 379q0 -78 30.5 -106.5t104.5 -28.5q94 0 134.5 44t58.5 173l22 157q15 107 15 136q0 60 -27 80t-100 20 q-106 0 -150 -44.5t-59 -172.5l-21 -158q-8 -78 -8 -100zM408 1239l229 330h338l-299 -330h-268z" />
<glyph unicode="&#xe2;" d="M51 365q0 39 6 79l41 293q24 168 131.5 272.5t266.5 104.5h159l125 -100l51 92h205l-155 -1106h-267l-4 115l-155 -123h-35q-181 0 -275 105.5t-94 267.5zM145 1288l371 375h332l264 -375h-301l-162 176l-209 -176h-295zM340 379q0 -78 30.5 -106.5t104.5 -28.5 q94 0 134.5 44t58.5 173l22 157q15 107 15 136q0 60 -27 80t-100 20q-106 0 -150 -44.5t-59 -172.5l-21 -158q-8 -78 -8 -100z" />
<glyph unicode="&#xe3;" d="M51 365q0 39 6 79l41 293q24 168 131.5 272.5t266.5 104.5h159l125 -100l51 92h205l-155 -1106h-267l-4 115l-155 -123h-35q-181 0 -275 105.5t-94 267.5zM180 1513q142 80 275 80q63 0 113.5 -12.5t78.5 -27.5t71 -27.5t93 -12.5q107 0 193 48l83 -224 q-135 -80 -249 -80q-76 0 -134.5 19.5t-114 39t-122.5 19.5q-116 0 -184 -47zM340 379q0 -78 30.5 -106.5t104.5 -28.5q94 0 134.5 44t58.5 173l22 157q15 107 15 136q0 60 -27 80t-100 20q-106 0 -150 -44.5t-59 -172.5l-21 -158q-8 -78 -8 -100z" />
<glyph unicode="&#xe4;" d="M51 365q0 39 6 79l41 293q24 168 131.5 272.5t266.5 104.5h159l125 -100l51 92h205l-155 -1106h-267l-4 115l-155 -123h-35q-181 0 -275 105.5t-94 267.5zM283 1282l39 266h266l-39 -266h-266zM340 379q0 -78 30.5 -106.5t104.5 -28.5q94 0 134.5 44t58.5 173l22 157 q15 107 15 136q0 60 -27 80t-100 20q-106 0 -150 -44.5t-59 -172.5l-21 -158q-8 -78 -8 -100zM709 1282l39 266h266l-39 -266h-266z" />
<glyph unicode="&#xe5;" d="M51 365q0 39 6 79l41 293q24 168 131.5 272.5t266.5 104.5h159l125 -100l51 92h205l-155 -1106h-267l-4 115l-155 -123h-35q-181 0 -275 105.5t-94 267.5zM340 379q0 -78 30.5 -106.5t104.5 -28.5q94 0 134.5 44t58.5 173l22 157q15 107 15 136q0 60 -27 80t-100 20 q-106 0 -150 -44.5t-59 -172.5l-21 -158q-8 -78 -8 -100zM397 1513q8 95 76.5 165.5t181.5 70.5q151 0 214.5 -72t45.5 -198q-6 -54 -23.5 -99.5t-47.5 -85t-80 -62t-115 -22.5q-83 0 -137 20.5t-80.5 62t-33.5 94t-1 126.5zM549 1481q-11 -80 10.5 -104.5t77.5 -24.5 q53 0 81.5 25t39.5 104q10 78 -12 102.5t-74 24.5q-56 0 -84.5 -24.5t-38.5 -102.5z" />
<glyph unicode="&#xe6;" horiz-adv-x="1474" d="M24.5 278q-17.5 87 0.5 189l41 266q29 189 134.5 285t282.5 96h90l125 -82l52 74h204q106 22 198.5 -0.5t153 -77.5t90 -137t17.5 -176l-33 -264h-518q-16 -115 19.5 -157t119.5 -42q70 0 122.5 10t136.5 45l79 -229q-91 -49 -176.5 -67.5t-193.5 -18.5q-98 0 -168 41 l-2 -33h-267v152l-118 -160q-115 0 -199 36t-128.5 99.5t-62 150.5zM307 479q-19 -132 8 -183.5t99 -51.5q141 0 168 209l28 206q17 118 -7 156.5t-103 38.5q-72 0 -114 -54t-60 -182zM891 651h237v8q16 110 -1.5 152.5t-88.5 42.5t-102 -45t-45 -150v-8z" />
<glyph unicode="&#xe7;" d="M104 356q0 37 7 95l39 276q9 60 28 113.5t55 105t85 88.5t122 59.5t162 22.5q91 0 163.5 -11t124 -32.5t83 -41t67.5 -48.5l-149 -225q-113 88 -268 88q-100 0 -148 -57t-61 -164l-15 -117q-6 -52 -6 -94q0 -84 36.5 -118t129.5 -34q165 0 289 66l78 -226 q-56 -49 -154 -79.5t-211 -30.5q-457 0 -457 364zM162 -410l94 136q118 -70 207 -70h8.5h10.5t11 0.5t12.5 1t12 2t12 3.5t10 5t8.5 6.5t5.5 9t3.5 11.5q5 30 -16.5 40.5t-55.5 10.5q-66 0 -94 -14l-63 116l43 150h204l-38 -137q31 16 77 16q68 0 112 -54t32 -136 q-5 -39 -13.5 -65.5t-28 -53.5t-50 -43.5t-81 -26.5t-120.5 -10q-96 0 -178.5 33t-124.5 69z" />
<glyph unicode="&#xe8;" d="M82 362q0 44 6 97l43 317q6 48 24 93t52.5 90.5t82 79t118.5 54.5t157 21q228 0 329 -95.5t101 -289.5q0 -73 -12 -158l-16 -120h-600q-5 -29 -5 -62q0 -80 44.5 -108.5t152.5 -28.5q76 0 140 12t151 53l82 -241q-75 -48 -186 -66t-209 -18q-455 0 -455 370zM365 1569 h337l136 -330h-269zM395 651h320q6 47 6 80q0 67 -30.5 95t-106.5 28q-38 0 -66 -5t-47.5 -17t-32 -25.5t-21 -39t-13 -48t-9.5 -60.5v-8z" />
<glyph unicode="&#xe9;" d="M82 362q0 44 6 97l43 317q6 48 24 93t52.5 90.5t82 79t118.5 54.5t157 21q228 0 329 -95.5t101 -289.5q0 -73 -12 -158l-16 -120h-600q-5 -29 -5 -62q0 -80 44.5 -108.5t152.5 -28.5q76 0 140 12t151 53l82 -241q-75 -48 -186 -66t-209 -18q-455 0 -455 370zM395 651h320 q6 47 6 80q0 67 -30.5 95t-106.5 28q-38 0 -66 -5t-47.5 -17t-32 -25.5t-21 -39t-13 -48t-9.5 -60.5v-8zM430 1239l229 330h338l-299 -330h-268z" />
<glyph unicode="&#xea;" d="M82 362q0 44 6 97l43 317q6 48 24 93t52.5 90.5t82 79t118.5 54.5t157 21q228 0 329 -95.5t101 -289.5q0 -73 -12 -158l-16 -120h-600q-5 -29 -5 -62q0 -80 44.5 -108.5t152.5 -28.5q76 0 140 12t151 53l82 -241q-75 -48 -186 -66t-209 -18q-455 0 -455 370zM168 1288 l371 375h331l265 -375h-301l-162 176l-209 -176h-295zM395 651h320q6 47 6 80q0 67 -30.5 95t-106.5 28q-38 0 -66 -5t-47.5 -17t-32 -25.5t-21 -39t-13 -48t-9.5 -60.5v-8z" />
<glyph unicode="&#xeb;" d="M82 362q0 44 6 97l43 317q6 48 24 93t52.5 90.5t82 79t118.5 54.5t157 21q228 0 329 -95.5t101 -289.5q0 -73 -12 -158l-16 -120h-600q-5 -29 -5 -62q0 -80 44.5 -108.5t152.5 -28.5q76 0 140 12t151 53l82 -241q-75 -48 -186 -66t-209 -18q-455 0 -455 370zM305 1282 l39 266h266l-39 -266h-266zM395 651h320q6 47 6 80q0 67 -30.5 95t-106.5 28q-38 0 -66 -5t-47.5 -17t-32 -25.5t-21 -39t-13 -48t-9.5 -60.5v-8zM731 1282l39 266h266l-39 -266h-266z" />
<glyph unicode="&#xec;" horiz-adv-x="778" d="M127 825l39 279h496l-156 -1104h-291l117 825h-205zM213 1569h338l135 -330h-268z" />
<glyph unicode="&#xed;" horiz-adv-x="778" d="M127 825l39 279h496l-156 -1104h-291l117 825h-205zM279 1239l229 330h338l-299 -330h-268z" />
<glyph unicode="&#xee;" horiz-adv-x="778" d="M16 1288l371 375h332l264 -375h-301l-162 176l-209 -176h-295zM127 825l39 279h496l-156 -1104h-291l117 825h-205z" />
<glyph unicode="&#xef;" horiz-adv-x="778" d="M127 825l39 279h496l-156 -1104h-291l117 825h-205zM154 1282l39 266h266l-39 -266h-266zM580 1282l38 266h267l-39 -266h-266z" />
<glyph unicode="&#xf0;" d="M2 401q0 73 12 156q24 169 140.5 266t271.5 97q126 0 156 -5l145 -86q12 91 12 156q0 211 -92 350l273 127q108 -162 108 -424q0 -162 -35 -393l-22 -166q-20 -140 -60.5 -234t-108 -150t-154.5 -79.5t-208 -23.5q-229 0 -333.5 103.5t-104.5 305.5zM285 424 q0 -85 46.5 -119.5t143.5 -34.5q100 0 152.5 68.5t52.5 169.5q0 69 -45 101t-143 32q-104 0 -155.5 -51t-51.5 -166zM530 985l35 225l664 156l-35 -225z" />
<glyph unicode="&#xf1;" d="M20 0l156 1106h205l25 -115l151 123h66q206 0 292 -84t86 -254q0 -70 -12 -149l-88 -627h-280l88 629q10 68 10 104q0 66 -30.5 93.5t-106.5 27.5q-101 0 -135.5 -36.5t-53.5 -164.5l-92 -653h-281zM203 1513q142 80 274 80q63 0 114 -12.5t79 -27.5t71 -27.5t93 -12.5 q106 0 192 48l84 -224q-135 -80 -250 -80q-76 0 -134.5 19.5t-114 39t-122.5 19.5q-116 0 -184 -47z" />
<glyph unicode="&#xf2;" d="M74 350q0 51 4 80l31 262q8 71 27 131.5t54 115t83.5 92.5t120 60.5t159.5 22.5q223 0 330.5 -100t107.5 -273q0 -55 -8 -102l-37 -236q-63 -411 -461 -411q-411 0 -411 358zM346 379q0 -78 30.5 -106.5t104.5 -28.5q94 0 134 45.5t61 183.5l20 139q11 102 11 107 q0 63 -30 98.5t-108 36.5q-96 0 -137.5 -44.5t-56.5 -172.5l-21 -158q-8 -78 -8 -100zM350 1569h338l135 -330h-268z" />
<glyph unicode="&#xf3;" d="M74 350q0 51 4 80l31 262q8 71 27 131.5t54 115t83.5 92.5t120 60.5t159.5 22.5q223 0 330.5 -100t107.5 -273q0 -55 -8 -102l-37 -236q-63 -411 -461 -411q-411 0 -411 358zM346 379q0 -78 30.5 -106.5t104.5 -28.5q94 0 134 45.5t61 183.5l20 139q11 102 11 107 q0 63 -30 98.5t-108 36.5q-96 0 -137.5 -44.5t-56.5 -172.5l-21 -158q-8 -78 -8 -100zM416 1239l229 330h338l-299 -330h-268z" />
<glyph unicode="&#xf4;" d="M74 350q0 51 4 80l31 262q8 71 27 131.5t54 115t83.5 92.5t120 60.5t159.5 22.5q223 0 330.5 -100t107.5 -273q0 -55 -8 -102l-37 -236q-63 -411 -461 -411q-411 0 -411 358zM154 1288l370 375h332l264 -375h-301l-162 176l-208 -176h-295zM346 379q0 -78 30.5 -106.5 t104.5 -28.5q94 0 134 45.5t61 183.5l20 139q11 102 11 107q0 63 -30 98.5t-108 36.5q-96 0 -137.5 -44.5t-56.5 -172.5l-21 -158q-8 -78 -8 -100z" />
<glyph unicode="&#xf5;" d="M74 350q0 51 4 80l31 262q8 71 27 131.5t54 115t83.5 92.5t120 60.5t159.5 22.5q223 0 330.5 -100t107.5 -273q0 -55 -8 -102l-37 -236q-63 -411 -461 -411q-411 0 -411 358zM188 1513q142 80 275 80q63 0 113.5 -12.5t78.5 -27.5t71 -27.5t93 -12.5q107 0 193 48 l84 -224q-135 -80 -250 -80q-76 0 -134.5 19.5t-114 39t-122.5 19.5q-116 0 -184 -47zM346 379q0 -78 30.5 -106.5t104.5 -28.5q94 0 134 45.5t61 183.5l20 139q11 102 11 107q0 63 -30 98.5t-108 36.5q-96 0 -137.5 -44.5t-56.5 -172.5l-21 -158q-8 -78 -8 -100z" />
<glyph unicode="&#xf6;" d="M74 350q0 51 4 80l31 262q8 71 27 131.5t54 115t83.5 92.5t120 60.5t159.5 22.5q223 0 330.5 -100t107.5 -273q0 -55 -8 -102l-37 -236q-63 -411 -461 -411q-411 0 -411 358zM291 1282l39 266h266l-39 -266h-266zM346 379q0 -78 30.5 -106.5t104.5 -28.5q94 0 134 45.5 t61 183.5l20 139q11 102 11 107q0 63 -30 98.5t-108 36.5q-96 0 -137.5 -44.5t-56.5 -172.5l-21 -158q-8 -78 -8 -100zM717 1282l39 266h266l-39 -266h-266z" />
<glyph unicode="&#xf7;" d="M94 598l39 279h881l-39 -279h-881zM328 205l37 260h303l-37 -260h-303zM440 1010l37 260h303l-37 -260h-303z" />
<glyph unicode="&#xf8;" d="M35 -61l110 182q-43 34 -66 116.5t-11 165.5l49 347q10 70 39.5 133t79 116.5t127.5 84.5t174 30q141 -2 204 -20l47 73h238l-115 -184q99 -117 78 -291l-41 -291q-12 -80 -46.5 -152t-89.5 -130t-136 -92.5t-176 -34.5q-111 0 -176 31l-52 -84h-237zM344 444l256 416 q-8 2 -29 2q-91 0 -137 -56t-65 -188zM455 238h24q92 0 140 56.5t67 186.5l25 172z" />
<glyph unicode="&#xf9;" d="M76 352q0 51 10 133l88 621h281l-88 -598q-11 -82 -11 -115q0 -73 34.5 -103t125.5 -30q86 0 118 37t50 164l90 645h281l-152 -1106h-209l-24 115l-154 -123q-227 2 -333.5 85.5t-106.5 274.5zM362 1569h338l136 -330h-269z" />
<glyph unicode="&#xfa;" d="M76 352q0 51 10 133l88 621h281l-88 -598q-11 -82 -11 -115q0 -73 34.5 -103t125.5 -30q86 0 118 37t50 164l90 645h281l-152 -1106h-209l-24 115l-154 -123q-227 2 -333.5 85.5t-106.5 274.5zM428 1239l229 330h338l-299 -330h-268z" />
<glyph unicode="&#xfb;" d="M76 352q0 51 10 133l88 621h281l-88 -598q-11 -82 -11 -115q0 -73 34.5 -103t125.5 -30q86 0 118 37t50 164l90 645h281l-152 -1106h-209l-24 115l-154 -123q-227 2 -333.5 85.5t-106.5 274.5zM166 1288l371 375h331l265 -375h-302l-161 176l-209 -176h-295z" />
<glyph unicode="&#xfc;" d="M76 352q0 51 10 133l88 621h281l-88 -598q-11 -82 -11 -115q0 -73 34.5 -103t125.5 -30q86 0 118 37t50 164l90 645h281l-152 -1106h-209l-24 115l-154 -123q-227 2 -333.5 85.5t-106.5 274.5zM303 1282l39 266h266l-39 -266h-266zM729 1282l39 266h266l-39 -266h-266z " />
<glyph unicode="&#xfd;" d="M-123 -297l158 236q60 -35 125 -35q125 0 125 155q0 23 -9 97l-145 948h295l90 -764l307 764h289l-430 -981q-64 -146 -116 -235t-115.5 -151t-136 -86t-173.5 -24q-155 0 -264 76zM432 1239l230 330h337l-299 -330h-268z" />
<glyph unicode="&#xfe;" d="M-31 -369l277 1966h246l-86 -606l151 123h33q214 0 311.5 -91t97.5 -271q0 -54 -10 -129l-35 -238q-12 -82 -45 -151t-87.5 -124t-137 -86.5t-184.5 -31.5h-119l-64 88l-61 -449h-287zM360 383q0 -75 32 -107t104 -32q91 0 132 51.5t60 183.5l19 139q8 52 8 99 q0 75 -30.5 106t-102.5 31q-105 0 -139 -42.5t-56 -193.5l-18 -139q-9 -55 -9 -96z" />
<glyph unicode="&#xff;" d="M-123 -297l158 236q60 -35 125 -35q125 0 125 155q0 23 -9 97l-145 948h295l90 -764l307 764h289l-430 -981q-64 -146 -116 -235t-115.5 -151t-136 -86t-173.5 -24q-155 0 -264 76zM307 1282l39 266h266l-39 -266h-266zM733 1282l39 266h266l-39 -266h-266z" />
<glyph unicode="&#x152;" horiz-adv-x="1474" d="M24.5 339q-6.5 115 16.5 267l47 344q15 104 34 178.5t55 145t86.5 114t128.5 69.5t181 26q28 0 224 -8h757l-38 -279h-472l-40 -293h409l-37 -262h-409l-52 -362h471l-38 -279h-758l2 10q-76 -18 -137 -18q-150 0 -244 39t-137 116t-49.5 192zM310.5 419.5 q-1.5 -77.5 33 -117.5t113.5 -40q54 0 91 17.5t60 56t35.5 86.5t22.5 123l57 397q11 84 8.5 142.5t-36.5 89t-105 30.5q-48 0 -83.5 -14.5t-57.5 -37.5t-38 -67t-25 -87t-19 -113l-39 -275q-16 -113 -17.5 -190.5z" />
<glyph unicode="&#x153;" horiz-adv-x="1474" d="M1.5 340q-4.5 54 6.5 106l49 306q8 51 25.5 98.5t52 97t81.5 85.5t119.5 59t160.5 22q124 -1 190.5 -25t116.5 -69q54 47 127 70.5t135 23.5q135 0 229 -67q63 -45 92 -110t26.5 -138.5t-13.5 -163.5l-27 -184h-518q-16 -118 24.5 -158.5t149.5 -40.5q46 0 104 16.5 t105 46.5l98 -231q-144 -92 -374 -92q-199 0 -293 84q-111 -84 -281 -84q-81 0 -146.5 19t-107.5 52t-73 77.5t-42.5 95t-16 104.5zM299 481q-19 -130 5.5 -182.5t101.5 -52.5q73 0 112.5 48t54.5 161l27 188q17 113 -9 162t-99 49q-77 0 -116.5 -53t-58.5 -183zM883 651 h237q16 118 -1.5 160.5t-88.5 42.5q-72 0 -102.5 -46t-44.5 -157z" />
<glyph unicode="&#x178;" d="M104 1475h304l165 -603l334 603h303l-542 -945l-74 -530h-287l74 530zM344 1671l39 266h266l-39 -266h-266zM770 1671l39 266h266l-39 -266h-266z" />
<glyph unicode="&#x2c6;" d="M147 1288l371 375h332l264 -375h-301l-162 176l-209 -176h-295z" />
<glyph unicode="&#x2dc;" d="M205 1546q142 80 274 80q63 0 114 -12.5t79 -27.5t71 -27.5t93 -12.5q108 0 192 47l84 -223q-135 -80 -250 -80q-76 0 -134.5 19.5t-113.5 39t-122 19.5q-117 0 -185 -47z" />
<glyph unicode="&#x2000;" horiz-adv-x="1069" />
<glyph unicode="&#x2001;" horiz-adv-x="2138" />
<glyph unicode="&#x2002;" horiz-adv-x="1069" />
<glyph unicode="&#x2003;" horiz-adv-x="2138" />
<glyph unicode="&#x2004;" horiz-adv-x="712" />
<glyph unicode="&#x2005;" horiz-adv-x="534" />
<glyph unicode="&#x2006;" horiz-adv-x="356" />
<glyph unicode="&#x2007;" horiz-adv-x="356" />
<glyph unicode="&#x2008;" horiz-adv-x="267" />
<glyph unicode="&#x2009;" horiz-adv-x="427" />
<glyph unicode="&#x200a;" horiz-adv-x="118" />
<glyph unicode="&#x2010;" horiz-adv-x="778" d="M47 414l41 278h594l-41 -278h-594z" />
<glyph unicode="&#x2011;" horiz-adv-x="778" d="M47 414l41 278h594l-41 -278h-594z" />
<glyph unicode="&#x2012;" horiz-adv-x="778" d="M47 414l41 278h594l-41 -278h-594z" />
<glyph unicode="&#x2013;" d="M47 414l41 278h922l-41 -278h-922z" />
<glyph unicode="&#x2014;" horiz-adv-x="1474" d="M47 414l41 278h1290l-41 -278h-1290z" />
<glyph unicode="&#x2018;" horiz-adv-x="778" d="M266 1114l47 336q12 86 27 130t45 75q51 51 166 84l57 -152q-108 -32 -108 -112h178l-51 -361h-361z" />
<glyph unicode="&#x2019;" horiz-adv-x="778" d="M264 1114l51 361h361l-47 -336q-12 -86 -27 -130t-45 -75q-51 -51 -166 -84l-57 151q108 32 108 113h-178z" />
<glyph unicode="&#x201a;" horiz-adv-x="778" d="M102 0l52 360h360l-47 -335q-12 -86 -27 -130t-45 -75q-51 -51 -166 -84l-57 151q109 32 109 113h-179z" />
<glyph unicode="&#x201c;" d="M203 1114l47 336q12 86 27 130t45 75q52 52 165 84l58 -152q-109 -32 -109 -112h178l-51 -361h-360zM686 1114l47 336q12 86 27 130t45 75q51 51 166 84l57 -152q-108 -32 -108 -112h178l-51 -361h-361z" />
<glyph unicode="&#x201d;" d="M166 1114l51 361h361l-48 -336q-13 -87 -27 -130.5t-44 -74.5q-51 -51 -166 -84l-57 151q108 32 108 113h-178zM649 1114l51 361h361l-47 -336q-12 -86 -27 -130t-45 -75q-51 -51 -166 -84l-57 151q108 32 108 113h-178z" />
<glyph unicode="&#x201e;" d="M10 0l51 360h361l-47 -335q-12 -86 -27 -130t-45 -75q-51 -51 -166 -84l-57 151q108 32 108 113h-178zM494 0l51 360h360l-47 -335q-12 -86 -27 -130t-45 -75q-52 -52 -165 -84l-58 151q109 32 109 113h-178z" />
<glyph unicode="&#x2022;" d="M158 553q4 62 20 117.5t47.5 105.5t76.5 86t110 57t145 21q81 0 143.5 -21t101 -57t62 -86.5t30.5 -105t3 -117.5q-4 -60 -20 -113.5t-47.5 -102.5t-76 -84t-110.5 -56t-147 -21q-80 0 -141.5 21t-100 56t-62 84t-31 102.5t-3.5 113.5z" />
<glyph unicode="&#x2026;" horiz-adv-x="1474" d="M-12 0l51 360h360l-51 -360h-360zM455 0l51 360h360l-51 -360h-360zM922 0l51 360h360l-51 -360h-360z" />
<glyph unicode="&#x202f;" horiz-adv-x="427" />
<glyph unicode="&#x2039;" d="M477 553l381 551h266l-381 -551l226 -553h-267z" />
<glyph unicode="&#x203a;" d="M-68 0l381 553l-225 551h266l226 -551l-381 -553h-267z" />
<glyph unicode="&#x205f;" horiz-adv-x="534" />
<glyph unicode="&#x20ac;" horiz-adv-x="1474" d="M190 494l50 204h161l11 68h-152l49 205h131q30 247 160 379.5t328 132.5q49 0 93 -4t75 -8t65 -15.5t50.5 -16.5t45 -22.5t36 -22t35.5 -25t32 -23.5l-168 -228q-4 2 -24.5 15.5t-24.5 15.5t-21.5 12.5t-24 13t-22.5 9.5t-26 9t-25.5 5.5t-30.5 4.5t-32 1 q-78 0 -138.5 -56.5t-91.5 -176.5h404l-50 -205h-387l-10 -68h377l-49 -204h-350q-2 -98 32 -159t111 -61q60 0 108 9.5t77.5 22t92.5 42.5l107 -252q-158 -100 -385 -100q-481 0 -434 498h-185z" />
<glyph unicode="&#x2122;" horiz-adv-x="2580" d="M410 1237l32 238h738l-33 -238h-242l-96 -684h-254l96 684h-241zM1174 553l129 922h344l63 -451l191 451h344l-129 -922h-246l78 551l-152 -346h-246l-53 346l-78 -551h-245z" />
<glyph unicode="&#x25fc;" d="M0 0v1106h1106v-1106h-1106z" />
<glyph unicode="&#xfb01;" horiz-adv-x="1884" d="M121 643l39 281h202l31 233q20 150 130.5 238t312.5 88q224 0 368 -103l-149 -235q-100 63 -219 63q-98 0 -130.5 -36.5t-46.5 -139.5l-16 -108h358l-38 -281h-359l-90 -643h-281l91 643h-203zM1233 825l39 279h495l-155 -1104h-291l117 825h-205zM1489 1296l43 301h305 l-43 -301h-305z" />
<glyph unicode="&#xfb02;" horiz-adv-x="1884" d="M121 643l39 281h202l31 233q20 150 130.5 238t312.5 88q224 0 368 -103l-149 -235q-100 63 -219 63q-98 0 -130.5 -36.5t-46.5 -139.5l-16 -108h358l-38 -281h-359l-90 -643h-281l91 643h-203zM1235 1196l39 279h495l-206 -1475h-291l168 1196h-205z" />
</font>
</defs>
</svg>
