<svg id="text" xmlns="http://www.w3.org/2000/svg" viewBox="0 0 997.66 492.79"><title>sign_3standardstoppage_logo</title><path d="M159.31,143.38c19.28,0,34.67,5.85,44.63,14.08l-14.51,23.4c-12.79-7.8-21.89-10-29.69-10-10,0-13.87,3-13.87,8s3.69,7.37,11.71,9.53l17.76,5c13.87,3.9,24,9.31,24,28.38,0,25.57-19.5,40.08-46.15,40.08-21.23,0-37.92-6.06-48.53-14.3L118.79,224c9.75,6.06,20.58,11.48,35.1,11.48,9.54,0,15.17-5,15.17-10.4,0-4.33-2.82-5.85-10.84-8.45l-16.46-5.2c-15.82-5-26-12.35-26-30.55C115.76,160.93,128.76,143.38,159.31,143.38Z" transform="translate(-35.48 -25)"/><path d="M249.88,173.93h-24l4.55-29.69H254l3.69-26,29.9-2.16-3.9,28.6H321.6l-4.77,29.68H280L274.58,214a27.28,27.28,0,0,0-.22,4.12c0,9.31,5.2,14.3,16.25,14.3,5.85,0,15.82-1.52,21.45-3.69l8.67,27.09c-8.88,4.55-24.27,5.85-32.07,5.85-24.7,0-45.07-10.62-45.07-37.05a126.31,126.31,0,0,1,1.3-15.39Z" transform="translate(-35.48 -25)"/><path d="M426.25,261.24H398.08l-.43-12.13-16.47,13H377.5c-26.87,0-39-18-39-39.43a54.56,54.56,0,0,1,.65-8.45l4.33-31c3.25-23.4,19.28-39.86,42-39.86h16.9L415.63,154l5.42-9.75h21.67ZM406.1,195.81a116.19,116.19,0,0,0,1.51-14.3c0-8.67-3.46-10.62-13.43-10.62-14.73,0-19.93,4.55-22.1,23l-2.17,16.68c-.43,4.12-.86,7.59-.86,10.62,0,11.27,4.11,14.3,14.3,14.3,13,0,17.76-4.55,20.36-23Z" transform="translate(-35.48 -25)"/><path d="M468.72,144.24h21.66l2.6,12.14,16-13H516c30.12,0,40.08,12.78,40.08,35.75a106.59,106.59,0,0,1-1.29,15.81l-9.32,66.3H515.73l9.32-66.51a78.52,78.52,0,0,0,1.08-11c0-9.32-3.68-12.79-14.51-12.79-14.09,0-17.34,3-19.94,21.24l-9.75,69.11H452.25Z" transform="translate(-35.48 -25)"/><path d="M660.25,261.24H638.59L636,249.11l-14.3,13c-34.89,0-48.54-15.6-48.54-39.43a96,96,0,0,1,.87-10.84l4.12-29.68c2.6-19.07,17.11-38.78,43.76-38.78h16.47l7.37,5.41,6.06-43.55h30.34Zm-20.58-65.43a114.61,114.61,0,0,0,1.52-14.3c0-8.67-3.47-10.62-13.44-10.62-14.73,0-19.5,4.55-21.66,23l-2.17,16.68c-.22,2.6-.65,5.85-.65,8.89,0,8,2.38,16,13.65,16,13,0,17.77-4.55,20.37-23Z" transform="translate(-35.48 -25)"/><path d="M777.26,261.24H749.09l-.43-12.13-16.47,13h-3.68c-26.87,0-39-18-39-39.43a54.56,54.56,0,0,1,.65-8.45l4.33-31c3.25-23.4,19.28-39.86,42-39.86h16.9L766.64,154l5.42-9.75h21.66Zm-20.15-65.43a116.19,116.19,0,0,0,1.51-14.3c0-8.67-3.46-10.62-13.43-10.62-14.73,0-19.93,4.55-22.1,23l-2.17,16.68c-.43,4.12-.86,7.59-.86,10.62,0,11.27,4.11,14.3,14.3,14.3,13,0,17.76-4.55,20.36-23Z" transform="translate(-35.48 -25)"/><path d="M846.81,261.24H815l16.47-117h21.66l2.39,14.3,16.25-15.16c26.21,0,35.1,4.76,45.71,12.13l-15.81,25.57c-7.8-4.55-14.09-7.15-24.7-7.15-14.52,0-18.42,3.9-21.24,24.48Z" transform="translate(-35.48 -25)"/><path d="M1011.26,261.24H989.6L987,249.11l-14.3,13c-34.89,0-48.54-15.6-48.54-39.43a96,96,0,0,1,.87-10.84l4.12-29.68c2.6-19.07,17.11-38.78,43.76-38.78h16.47l7.37,5.41,6.06-43.55h30.34Zm-20.58-65.43a114.61,114.61,0,0,0,1.52-14.3c0-8.67-3.47-10.62-13.44-10.62-14.73,0-19.5,4.55-21.66,23l-2.17,16.68c-.22,2.6-.65,5.85-.65,8.89,0,8,2.38,16,13.65,16,13,0,17.77-4.55,20.37-23Z" transform="translate(-35.48 -25)"/><path d="M159.31,360.05c19.28,0,34.67,5.85,44.63,14.09l-14.51,23.4c-12.79-7.81-21.89-10-29.69-10-10,0-13.87,3-13.87,8s3.69,7.37,11.71,9.54l17.76,5c13.87,3.9,24,9.32,24,28.39,0,25.56-19.5,40.08-46.15,40.08-21.23,0-37.92-6.07-48.53-14.3l14.08-23.62c9.75,6.07,20.58,11.49,35.1,11.49,9.54,0,15.17-5,15.17-10.4,0-4.34-2.82-5.85-10.84-8.45l-16.46-5.2c-15.82-5-26-12.35-26-30.55C115.76,377.6,128.76,360.05,159.31,360.05Z" transform="translate(-35.48 -25)"/><path d="M249.88,390.6h-24l4.55-29.68H254l3.69-26,29.9-2.17-3.9,28.6H321.6L316.83,391H280l-5.41,39.65a27.08,27.08,0,0,0-.22,4.11c0,9.32,5.2,14.3,16.25,14.3,5.85,0,15.82-1.51,21.45-3.68l8.67,27.08c-8.88,4.55-24.27,5.85-32.07,5.85-24.7,0-45.07-10.61-45.07-37.05a126.31,126.31,0,0,1,1.3-15.38Z" transform="translate(-35.48 -25)"/><path d="M433.18,435.24c-4.11,27.08-19.28,43.55-48.75,43.55-30.77,0-43.55-14.52-43.55-37.92a57,57,0,0,1,.43-8.45l3.25-27.73c2.82-24.06,14.95-44.64,47-44.64,32.72,0,46.37,16.25,46.37,39.44a62.53,62.53,0,0,1-.87,10.83Zm-60.45-24.7-2.17,16.68c-.43,4.12-.86,7.58-.86,10.62,0,11.26,4.11,14.3,14.3,14.3,13,0,17.55-4.55,20.58-24.27l2.17-14.73a110.36,110.36,0,0,0,1.08-11.27c0-8-2.82-14.08-14.52-14.3C380.1,387.57,374.9,392.12,372.73,410.54Z" transform="translate(-35.48 -25)"/><path d="M468.72,360.92h21.66l2.6,12.13,16-13h5c30.12,0,42.25,16.25,42.25,38.78a63.53,63.53,0,0,1-.86,10.84l-3.9,26.87c-3.69,24-16,42.25-48.76,42.25H490.38l-6.71-9.32-6.5,47.45H446.83ZM491,410.54l-2.16,16.68a62.08,62.08,0,0,0-.65,9.32c0,8,2.38,15.6,14.08,15.6,13,0,17.55-4.55,20.58-24.27l2.17-14.73a110.36,110.36,0,0,0,1.08-11.27c0-8-2.81-14.3-14.51-14.3C498.4,387.57,493.2,392.12,491,410.54Z" transform="translate(-35.48 -25)"/><path d="M585.72,360.92h21.67l2.6,12.13,16-13h5c30.12,0,42.25,16.25,42.25,38.78a62.53,62.53,0,0,1-.86,10.84l-3.9,26.87c-3.69,24-16,42.25-48.75,42.25H607.39l-6.72-9.32-6.5,47.45H563.84ZM608,410.54l-2.17,16.68a63.43,63.43,0,0,0-.65,9.32c0,8,2.38,15.6,14.08,15.6,13,0,17.55-4.55,20.59-24.27l2.16-14.73a107.73,107.73,0,0,0,1.09-11.27c0-8-2.82-14.3-14.52-14.3C615.4,387.57,610.2,392.12,608,410.54Z" transform="translate(-35.48 -25)"/><path d="M777.26,477.92H749.09l-.43-12.13-16.47,13h-3.68c-26.87,0-39-18-39-39.44a54.75,54.75,0,0,1,.65-8.45l4.33-31c3.25-23.4,19.28-39.87,42-39.87h16.9l13.22,10.62,5.42-9.75h21.66Zm-20.15-65.43a116.38,116.38,0,0,0,1.51-14.3c0-8.67-3.46-10.62-13.43-10.62-14.73,0-19.93,4.55-22.1,23l-2.17,16.68c-.43,4.12-.86,7.58-.86,10.62,0,11.26,4.11,14.3,14.3,14.3,13,0,17.76-4.55,20.36-23Z" transform="translate(-35.48 -25)"/><path d="M853.53,478.79c-34.24,0-46.37-15-46.37-38.57a77.94,77.94,0,0,1,.87-12.13l3.46-24.49c3.69-26.65,17.77-43.55,45.29-43.55h13.65l12.56,13,6.07-12.13h21.67l-15.82,112c-3,21.88-16,44.85-49.18,44.85-13.87,0-22.1-2.82-31-7.37l15.82-25.57c3.25,1.95,9.32,3.69,15,3.69,14.08,0,18.42-6.72,20.15-19.5Zm20.36-66.3a114.8,114.8,0,0,0,1.52-14.3c0-8.67-3.47-10.62-13.43-10.62-14.74,0-20.15,4.55-22.32,23l-2.17,16.68a78.05,78.05,0,0,0-.86,10.18c0,7.8,2.38,14.74,14.3,14.74,13,0,18-4.55,20.58-23Z" transform="translate(-35.48 -25)"/><path d="M1008,444.34l8.67,25.56c-11.92,7.59-32.07,8.89-41.82,8.89-31,0-48.1-12.14-48.1-39.22a86.32,86.32,0,0,1,.65-10.18L932,395.8c2.17-15.81,14.52-35.75,45.94-35.75,32.93,0,45.5,14.09,45.5,40.74a120.57,120.57,0,0,1-1.3,16.68l-1.74,12.78H956.88a35.33,35.33,0,0,0-.43,6.5c0,11.7,6.28,14.52,20.8,14.52C985.91,451.27,994.36,450.84,1008,444.34ZM993.71,409a64,64,0,0,0,.65-8.45c0-9.32-3.68-13-14.51-13-16.25,0-18,6.72-19.94,20.58V409Z" transform="translate(-35.48 -25)"/><path d="M77.35,43.19H49L51.53,25h55.92l-2.27,17.66L84.71,59.51c12.17,1.07,17.66,9.1,17.66,21.94a53,53,0,0,1-.54,7.76c-2.54,19-11.1,32.64-34.24,32.64-17.79,0-26.49-6.15-32.11-11.64L47.12,96a31.48,31.48,0,0,0,20.33,7.63c8,0,14.18-4.42,15.66-14.45a26.84,26.84,0,0,0,.26-3.08c0-6.68-3.74-10.56-10.83-10.56A34.11,34.11,0,0,0,57,79L50.33,65Z" transform="translate(-35.48 -25)"/></svg>